<svg width="907" height="206" viewBox="0 0 907 206" fill="none" xmlns="http://www.w3.org/2000/svg">
<mask id="mask0_293_51" style="mask-type:luminance" maskUnits="userSpaceOnUse" x="0" y="0" width="907" height="202">
<path d="M906.4 0H0V201.422H906.4V0Z" fill="white"/>
</mask>
<g mask="url(#mask0_293_51)">
<path d="M47.0715 161.464V125.887H23.5357C4.48822 125.887 0 125.559 0 124.355C0 123.588 20.5801 106.292 45.7579 85.8217C99.8354 41.9247 136.508 12.1492 143.623 6.3474L148.658 2.07812L161.138 12.6966C167.925 18.4984 173.617 23.6434 173.836 23.9718C173.945 24.4097 159.934 36.3418 142.638 50.5728C125.232 64.8037 104.214 82.2089 95.785 89.434L80.4595 102.461L79.912 149.423C79.5837 175.367 79.1457 196.604 79.0362 196.823C78.9268 196.932 71.7017 197.042 62.9444 197.042H47.0715V161.464Z" fill="#7120DA"/>
<path d="M56.5972 70.3899C56.2685 69.8424 55.3928 66.4489 54.7359 62.6173C53.6413 57.363 53.6413 54.7358 54.6265 51.5611C56.4878 45.3214 56.1591 43.5699 52.875 40.8332L49.8102 38.4249L58.8957 38.3154C63.8218 38.3154 67.8723 38.5343 67.8723 38.8627C67.8723 39.1912 66.5589 40.6143 65.0263 41.9279C62.6179 44.1173 62.3991 44.6646 63.4936 47.5107C65.0263 51.5611 65.1357 64.2594 63.603 68.2004C62.7273 70.2801 61.7422 71.1558 59.7714 71.1558C58.2392 71.1558 56.816 70.8276 56.5972 70.3899Z" fill="#7120DA"/>
<path d="M47.8361 36.4502C47.3984 36.1219 47.0698 34.3704 47.0698 32.6189V29.5537H60.2062H73.3425V32.7283C73.3425 34.5893 72.6856 36.1219 71.5906 36.5597C69.2921 37.4355 48.7118 37.4355 47.8361 36.4502Z" fill="#7120DA"/>
<path d="M46.4144 25.942C46.0862 25.0663 45.9768 21.2349 46.1956 17.4035L46.5239 10.3975H59.6602H72.7966V18.6076V26.8178L59.8791 27.1462C49.6985 27.3651 46.9619 27.1462 46.4144 25.942Z" fill="#7120DA"/>
<path d="M146.688 78.8184H126.984V99.6174H146.688V78.8184Z" fill="#2F2F2F"/>
<path d="M170.771 78.8184H151.067V99.6174H170.771V78.8184Z" fill="#2F2F2F"/>
<path d="M170.771 102.901H151.067V123.7H170.771V102.901Z" fill="#2F2F2F"/>
<path d="M146.688 102.901H126.984V123.7H146.688V102.901Z" fill="#2F2F2F"/>
<path d="M337.164 73.8916V149.425H347.564V118.774H362.342V149.425H372.742V73.8916H362.342V105.637H347.564V73.8916H337.164Z" fill="#7120DA"/>
<path d="M142.308 141.763H149.423V153.257L127.53 163.109V171.32" stroke="#2D2D2D" stroke-width="2.18937"/>
<path d="M139.028 134.646H103.998C100.37 134.646 97.4297 137.586 97.4297 141.214V141.214C97.4297 144.841 100.37 147.782 103.998 147.782H139.028C142.655 147.782 145.596 144.841 145.596 141.214V141.214C145.596 137.586 142.655 134.646 139.028 134.646Z" fill="#2D2D2D"/>
<path d="M131.252 171.261C131.252 169.176 129.562 167.486 127.477 167.486C125.393 167.486 123.703 169.176 123.703 171.261V190.694C123.703 192.779 125.393 194.469 127.477 194.469C129.562 194.469 131.252 192.779 131.252 190.694V171.261Z" fill="#2D2D2D"/>
<path fill-rule="evenodd" clip-rule="evenodd" d="M136.291 164.751L135.963 179.858L135.635 194.855L204.928 194.636L274.222 194.307L274.55 160.153L274.769 125.89H283.089C287.906 125.89 291.189 125.452 290.97 124.795C290.861 124.248 270.171 106.514 245.213 85.2766C220.254 64.1492 199.345 46.4154 198.688 45.7586C197.922 45.1018 198.36 44.226 199.783 43.1313C205.147 39.3 207.774 35.9064 208.322 32.4034C208.759 29.7762 210.292 27.3679 212.81 25.069C214.999 23.2081 216.751 20.7998 216.751 19.5956C216.751 17.4062 207.227 9.5245 205.366 10.1813C204.709 10.4002 203.067 12.2612 201.754 14.3411C200.44 16.421 197.156 21.0187 194.419 24.6312C191.683 28.2436 188.727 32.1845 187.851 33.3886C186.318 35.578 186.209 35.578 183.472 32.9508L180.736 30.3235L180.721 30.3331L179.93 29.5579L174.999 34.1576C167.271 39.6399 155.361 49.4289 155.667 50.247C155.886 50.794 175.481 67.8714 199.236 88.2324L242.476 125.342L242.804 144.828L243.023 164.203L189.712 164.423L136.291 164.751ZM244.337 77.8345C253.313 84.7309 259.881 90.7516 265.136 97.2104C266.668 99.0712 268.748 100.713 269.624 100.713C271.813 100.713 274.988 97.7579 279.038 92.0654C283.417 85.9353 282.541 84.4027 271.704 78.8196C267.106 76.5211 259.553 71.595 255.065 67.9822C243.57 58.6774 237.002 55.2839 233.609 56.8165C232.186 57.364 230.763 59.2249 230.324 60.7575C229.339 64.5887 233.39 69.5148 244.337 77.8345ZM215.557 50.8251C208.895 45.6918 207.122 44.3253 207.235 43.1365C207.275 42.7052 207.564 42.2974 207.957 41.7415C208.103 41.5354 208.264 41.3089 208.431 41.0533L210.292 38.2071L219.269 45.213C228.683 52.5473 229.777 54.1893 227.479 57.1452C226.165 58.7873 225.399 58.3492 219.488 53.8611C218.019 52.7231 216.714 51.7173 215.557 50.8251Z" fill="#2F2F2F"/>
<path d="M136.292 164.751L136.285 163.656L135.22 163.663L135.197 164.727L136.292 164.751ZM135.635 194.855L134.54 194.831L134.516 195.953L135.638 195.949L135.635 194.855ZM274.222 194.307L274.227 195.402L275.306 195.397L275.316 194.318L274.222 194.307ZM274.769 125.89V124.795H273.682L273.675 125.883L274.769 125.89ZM290.971 124.795L289.897 125.01L289.91 125.076L289.932 125.141L290.971 124.795ZM198.688 45.7586L199.463 44.9845L199.433 44.9548L199.401 44.9274L198.688 45.7586ZM199.783 43.1313L199.147 42.24L199.116 42.2637L199.783 43.1313ZM208.322 32.4034L207.242 32.2234L207.24 32.2344L208.322 32.4034ZM212.81 25.069L212.1 24.2344L212.072 24.2606L212.81 25.069ZM205.366 10.1813L205.712 11.22L205.73 11.2136L205.366 10.1813ZM187.851 33.3886L186.966 32.7447L186.954 32.7609L187.851 33.3886ZM180.736 30.3235L181.494 29.5338L180.864 28.9289L180.134 29.409L180.736 30.3235ZM180.721 30.333L179.955 31.1148L180.586 31.7328L181.323 31.2476L180.721 30.333ZM179.931 29.5579L180.697 28.7761L179.949 28.0434L179.184 28.7574L179.931 29.5579ZM174.999 34.1576L175.633 35.0505L175.692 35.0081L175.746 34.9581L174.999 34.1576ZM155.667 50.2469L154.642 50.6315L154.651 50.6534L155.667 50.2469ZM242.476 125.342L243.57 125.324L243.562 124.832L243.189 124.512L242.476 125.342ZM242.805 144.827L243.899 144.815V144.809L242.805 144.827ZM243.023 164.203L243.028 165.298L244.13 165.294L244.118 164.191L243.023 164.203ZM265.136 97.2104L264.287 97.9011L264.291 97.9062L265.136 97.2104ZM244.337 77.8345L245.004 76.9665L244.999 76.9628L244.337 77.8345ZM271.704 78.8196L272.205 77.8464L272.193 77.8404L271.704 78.8196ZM233.609 56.8165L234.002 57.8401L234.06 57.814L233.609 56.8165ZM230.325 60.7575L229.272 60.4568L229.264 60.4847L230.325 60.7575ZM210.292 38.2071L210.966 37.3441L210.028 36.6117L209.376 37.608L210.292 38.2071ZM227.479 57.1452L228.334 57.8291L228.343 57.8172L227.479 57.1452ZM219.488 53.8611L218.817 54.7263L218.826 54.7332L219.488 53.8611ZM137.057 179.882L137.386 164.775L135.197 164.727L134.869 179.834L137.057 179.882ZM136.729 194.879L137.057 179.882L134.869 179.834L134.54 194.831L136.729 194.879ZM204.925 193.541L135.631 193.76L135.638 195.949L204.932 195.731L204.925 193.541ZM274.217 193.213L204.925 193.541L204.932 195.731L274.227 195.402L274.217 193.213ZM273.455 160.143L273.127 194.297L275.316 194.318L275.645 160.164L273.455 160.143ZM273.675 125.883L273.455 160.143L275.645 160.164L275.864 125.897L273.675 125.883ZM283.089 124.795H274.769V126.984H283.089V124.795ZM289.932 125.141C289.784 124.697 290.016 124.354 290.136 124.239C290.217 124.162 290.251 124.17 290.121 124.219C289.887 124.308 289.446 124.411 288.769 124.504C287.443 124.686 285.474 124.795 283.089 124.795V126.984C285.521 126.984 287.601 126.874 289.067 126.673C289.786 126.575 290.426 126.445 290.896 126.267C291.119 126.183 291.411 126.049 291.649 125.821C291.925 125.557 292.212 125.057 292.009 124.449L289.932 125.141ZM244.503 86.1106C256.982 96.7288 268.392 106.469 276.696 113.624C280.848 117.201 284.22 120.129 286.56 122.196C287.731 123.23 288.638 124.044 289.253 124.614C289.562 124.9 289.789 125.116 289.935 125.265C290.011 125.341 290.052 125.386 290.07 125.406C290.08 125.418 290.069 125.407 290.05 125.38C290.041 125.366 290.02 125.335 289.996 125.29C289.978 125.256 289.926 125.154 289.897 125.01L292.044 124.58C291.994 124.327 291.862 124.15 291.85 124.134C291.808 124.073 291.764 124.019 291.731 123.981C291.663 123.901 291.579 123.813 291.491 123.723C291.31 123.542 291.057 123.3 290.741 123.008C290.106 122.42 289.183 121.593 288.009 120.555C285.659 118.479 282.279 115.544 278.125 111.965C269.816 104.806 258.402 95.0615 245.922 84.4429L244.503 86.1106ZM197.914 46.5325C198.119 46.7372 199.605 48.0153 202.015 50.0721C204.458 52.1582 207.914 55.0971 212.129 58.6755C220.559 65.8329 232.023 75.5465 244.503 86.1106L245.922 84.4429C233.442 73.8793 221.974 64.1625 213.546 57.0065C209.331 53.4285 205.877 50.4909 203.436 48.4067C202.215 47.3648 201.248 46.5366 200.567 45.9493C200.227 45.6557 199.958 45.4234 199.767 45.2551C199.67 45.1709 199.595 45.1044 199.54 45.055C199.478 44.9993 199.459 44.981 199.463 44.9845L197.914 46.5325ZM199.116 42.2637C198.377 42.8317 197.721 43.4651 197.412 44.1704C197.245 44.5514 197.16 44.9999 197.27 45.4724C197.379 45.9438 197.653 46.3133 197.976 46.5898L199.401 44.9274C199.341 44.8757 199.382 44.8891 199.403 44.9774C199.423 45.0668 199.393 45.1048 199.418 45.0479C199.447 44.9805 199.526 44.8501 199.706 44.6571C199.881 44.4682 200.126 44.2487 200.451 43.999L199.116 42.2637ZM207.24 32.2344C206.763 35.2904 204.441 38.4581 199.147 42.24L200.419 44.0221C205.853 40.1413 208.786 36.5224 209.403 32.5724L207.24 32.2344ZM212.072 24.2606C209.442 26.6623 207.733 29.2766 207.242 32.2234L209.401 32.5834C209.786 30.2757 211.143 28.0734 213.548 25.8774L212.072 24.2606ZM215.656 19.5956C215.656 19.6627 215.622 19.8681 215.451 20.2333C215.29 20.5784 215.042 20.9905 214.714 21.4451C214.058 22.3536 213.134 23.3565 212.1 24.2344L213.519 25.9031C214.675 24.9201 215.722 23.7888 216.489 22.7269C216.872 22.1962 217.199 21.6643 217.434 21.1609C217.661 20.6777 217.846 20.1306 217.846 19.5956H215.656ZM205.73 11.2136C205.626 11.2505 205.583 11.2304 205.66 11.2404C205.73 11.2493 205.848 11.2761 206.021 11.3381C206.368 11.4624 206.826 11.6872 207.374 12.0103C208.464 12.6527 209.78 13.6072 211.059 14.6646C212.336 15.7214 213.541 16.8527 214.416 17.8361C214.855 18.3297 215.19 18.7631 215.409 19.1145C215.656 19.5111 215.656 19.6491 215.656 19.5956H217.846C217.846 18.9948 217.548 18.4074 217.267 17.9566C216.958 17.4604 216.534 16.9241 216.052 16.3811C215.082 15.2914 213.79 14.0828 212.454 12.9776C211.119 11.873 209.706 10.8434 208.486 10.1243C207.88 9.7667 207.288 9.46635 206.759 9.27674C206.493 9.18184 206.216 9.10448 205.941 9.06904C205.675 9.03471 205.339 9.02995 205.002 9.14902L205.73 11.2136ZM202.679 14.9257C203.308 13.9306 204.013 12.9909 204.631 12.2831C204.941 11.9283 205.216 11.6461 205.437 11.4484C205.696 11.2179 205.779 11.198 205.712 11.22L205.02 9.14279C204.625 9.27422 204.256 9.5688 203.981 9.8138C203.669 10.0917 203.329 10.4457 202.982 10.8435C202.286 11.6409 201.513 12.6717 200.828 13.7566L202.679 14.9257ZM195.292 25.2922C198.033 21.6735 201.34 17.046 202.679 14.9257L200.828 13.7566C199.54 15.796 196.279 20.3638 193.547 23.9701L195.292 25.2922ZM188.736 34.0325C189.605 32.8385 192.554 28.9062 195.292 25.2922L193.547 23.9701C190.811 27.5811 187.849 31.5304 186.966 32.7447L188.736 34.0325ZM182.714 33.7404C183.388 34.3873 183.946 34.9178 184.412 35.2902C184.846 35.6376 185.382 36.0045 186.007 36.0654C186.751 36.138 187.298 35.7659 187.677 35.3898C188.029 35.0397 188.383 34.5386 188.748 34.0164L186.954 32.7609C186.554 33.3334 186.318 33.6532 186.134 33.8368C185.975 33.9944 186.037 33.8686 186.22 33.8864C186.284 33.8926 186.183 33.9037 185.78 33.5806C185.407 33.2826 184.925 32.8278 184.23 32.161L182.714 33.7404ZM179.978 31.1132L182.714 33.7404L184.23 32.161L181.494 29.5338L179.978 31.1132ZM181.323 31.2476L181.337 31.238L180.134 29.409L180.12 29.4185L181.323 31.2476ZM179.164 30.3397L179.955 31.1148L181.487 29.5513L180.697 28.7761L179.164 30.3397ZM175.746 34.9581L180.677 30.3584L179.184 28.7574L174.253 33.3571L175.746 34.9581ZM156.692 49.8624C156.811 50.1796 156.731 50.4337 156.716 50.4804C156.692 50.5536 156.669 50.5857 156.682 50.5637C156.707 50.5234 156.776 50.4273 156.918 50.2657C157.193 49.9508 157.631 49.5095 158.22 48.9578C159.391 47.8615 161.073 46.4062 163.018 44.7944C166.908 41.5729 171.795 37.7724 175.633 35.0505L174.366 33.2647C170.475 36.025 165.543 39.8603 161.622 43.1083C159.662 44.7316 157.941 46.2194 156.724 47.3597C156.118 47.9269 155.616 48.4273 155.268 48.8255C155.098 49.0201 154.935 49.2238 154.816 49.4197C154.757 49.5154 154.683 49.6495 154.632 49.8079C154.589 49.9402 154.504 50.2634 154.642 50.6315L156.692 49.8624ZM199.949 87.4016C188.073 77.2224 177.237 67.8645 169.345 60.9841C165.398 57.5439 162.19 54.7245 159.955 52.7327C158.838 51.7361 157.967 50.9501 157.372 50.398C157.074 50.1215 156.851 49.91 156.703 49.7631C156.628 49.6884 156.581 49.6399 156.557 49.6125C156.546 49.5983 156.544 49.5983 156.557 49.6125C156.563 49.6193 156.577 49.6404 156.595 49.6678C156.609 49.6889 156.648 49.7507 156.684 49.8404L154.651 50.6534C154.716 50.8164 154.81 50.9336 154.826 50.9542C154.863 51.0018 154.9 51.0448 154.932 51.0796C154.995 51.1506 155.075 51.2316 155.161 51.3168C155.336 51.4903 155.58 51.7214 155.884 52.0039C156.495 52.5702 157.377 53.3672 158.498 54.3669C160.742 56.367 163.958 59.1924 167.907 62.6344C175.805 69.5198 186.645 78.8814 198.524 89.0637L199.949 87.4016ZM243.189 124.512L199.949 87.4016L198.524 89.0637L241.763 126.173L243.189 124.512ZM243.899 144.809L243.57 125.324L241.381 125.36L241.71 144.846L243.899 144.809ZM244.118 164.191L243.899 144.815L241.71 144.84L241.929 164.216L244.118 164.191ZM189.716 165.517L243.028 165.298L243.019 163.109L189.708 163.328L189.716 165.517ZM136.298 165.845L189.716 165.517L189.708 163.328L136.285 163.656L136.298 165.845ZM265.985 96.5196C260.657 89.9711 254.017 83.8918 245.004 76.9665L243.67 78.7024C252.609 85.5704 259.106 91.5325 264.287 97.9011L265.985 96.5196ZM269.624 99.6187C269.687 99.6187 269.591 99.6265 269.285 99.4626C269.016 99.3184 268.68 99.0946 268.301 98.7979C267.545 98.2056 266.699 97.3861 265.981 96.5145L264.291 97.9062C265.106 98.8959 266.065 99.8275 266.951 100.521C267.393 100.868 267.837 101.171 268.252 101.393C268.63 101.595 269.124 101.808 269.624 101.808V99.6187ZM278.148 91.4291C276.142 94.2476 274.385 96.3424 272.892 97.7189C271.348 99.1417 270.276 99.6187 269.624 99.6187V101.808C271.161 101.808 272.771 100.807 274.375 99.329C276.029 97.8046 277.885 95.5738 279.93 92.6999L278.148 91.4291ZM271.203 79.7928C273.91 81.1877 275.949 82.306 277.431 83.2935C278.931 84.2928 279.738 85.0806 280.12 85.7691C280.458 86.3771 280.511 86.9914 280.225 87.8483C279.917 88.7721 279.238 89.9019 278.148 91.4291L279.93 92.6999C281.029 91.1617 281.881 89.8031 282.302 88.541C282.745 87.212 282.722 85.9449 282.034 84.7057C281.39 83.5466 280.22 82.5212 278.645 81.4715C277.051 80.4099 274.916 79.2435 272.205 77.8464L271.203 79.7928ZM254.376 68.8332C258.916 72.4881 266.538 77.4609 271.214 79.7988L272.193 77.8404C267.674 75.5813 260.186 70.6995 255.751 67.1293L254.376 68.8332ZM234.06 57.814C235.249 57.277 237.312 57.4977 240.794 59.3068C244.197 61.0748 248.644 64.1931 254.376 68.8332L255.751 67.1293C249.988 62.4646 245.407 59.2359 241.804 57.364C238.28 55.5334 235.362 54.8238 233.158 55.819L234.06 57.814ZM231.377 61.0583C231.548 60.46 231.933 59.7408 232.447 59.1072C232.97 58.4636 233.536 58.0195 234.002 57.8401L233.216 55.7947C232.259 56.1628 231.402 56.9209 230.747 57.7279C230.085 58.5446 229.539 59.5224 229.272 60.4568L231.377 61.0583ZM244.999 76.9628C239.539 72.8131 235.875 69.5647 233.703 66.9183C231.512 64.2499 231.026 62.4266 231.385 61.0299L229.264 60.4847C228.639 62.9196 229.685 65.4749 232.01 68.3076C234.353 71.1614 238.188 74.5366 243.674 78.7061L244.999 76.9628ZM206.145 43.0338C206.086 43.6615 206.299 44.2208 206.645 44.7318C206.976 45.2208 207.476 45.7352 208.125 46.3165C209.426 47.4833 211.577 49.1405 214.889 51.6921L216.225 49.9581C212.875 47.3767 210.81 45.7841 209.587 44.6867C208.973 44.1362 208.635 43.7653 208.457 43.5032C208.373 43.379 208.342 43.3039 208.331 43.2687C208.326 43.252 208.325 43.2409 208.324 43.2392C208.324 43.2405 208.324 43.2379 208.324 43.2392L206.145 43.0338ZM207.064 41.109C206.877 41.3728 206.669 41.6642 206.509 41.95C206.344 42.2445 206.185 42.6067 206.145 43.0338L208.324 43.2392C208.325 43.2351 208.331 43.1777 208.418 43.0215C208.511 42.8565 208.644 42.6661 208.851 42.3741L207.064 41.109ZM207.516 40.4533C207.361 40.6902 207.211 40.9017 207.064 41.109L208.851 42.3741C208.996 42.169 209.167 41.9275 209.347 41.6532L207.516 40.4533ZM209.376 37.608L207.516 40.4533L209.347 41.6532L211.209 38.8062L209.376 37.608ZM219.942 44.3501L210.966 37.3441L209.619 39.07L218.595 46.0761L219.942 44.3501ZM228.343 57.8172C228.956 57.0285 229.472 56.1733 229.578 55.1822C229.689 54.1522 229.34 53.1817 228.669 52.2021C228.01 51.2403 226.981 50.1838 225.572 48.9363C224.155 47.6811 222.299 46.1861 219.942 44.3501L218.595 46.0761C220.946 47.9072 222.757 49.368 224.121 50.5756C225.494 51.7915 226.359 52.7052 226.863 53.4399C227.355 54.1573 227.438 54.6096 227.401 54.9483C227.361 55.3255 227.151 55.7838 226.615 56.4732L228.343 57.8172ZM218.826 54.7332C220.301 55.8529 221.474 56.7346 222.417 57.3956C223.349 58.0479 224.119 58.5291 224.779 58.8092C225.451 59.0949 226.154 59.2345 226.862 58.9914C227.525 58.7639 227.984 58.2658 228.334 57.8291L226.624 56.4613C226.317 56.8458 226.187 56.9085 226.152 56.9204C226.146 56.9223 226.124 56.9309 226.056 56.9236C225.979 56.9145 225.846 56.8838 225.636 56.7945C225.201 56.6096 224.589 56.2425 223.673 55.6016C222.769 54.9694 221.63 54.1133 220.15 52.989L218.826 54.7332ZM214.889 51.6921C216.046 52.5844 217.35 53.5892 218.817 54.7263L220.158 52.9959C218.689 51.8565 217.382 50.8503 216.225 49.9581L214.889 51.6921Z" fill="#2D2D2D"/>
<path d="M441.71 149.425H430.763V73.8916H446.089L457.583 127.531L467.437 73.8916H483.308V149.425H472.363L470.719 105.637L462.507 149.425H452.656L441.71 103.995V149.425Z" fill="#7120DA"/>
<path d="M504.65 118.225V139.024H525.447V148.876H492.606V74.4375H525.447V85.9318H504.65V106.731H519.976V118.225H504.65Z" fill="#7120DA"/>
<path fill-rule="evenodd" clip-rule="evenodd" d="M383.134 86.5452V138.543C384.296 143.63 392.074 152.786 402.291 153.237C412.508 153.69 420.287 144.195 421.448 138.543V86.5452C420.287 82.0237 415.295 72.6411 404.613 71.2847C393.932 69.9283 384.296 79.1974 383.134 86.5452ZM394.745 89.8027V135.018C395.325 137.279 398.427 140.105 401.711 140.105C404.613 140.105 408.677 136.713 408.677 135.018V89.8027C408.677 88.1071 405.542 83.5856 402.291 83.5856C399.04 83.5856 395.325 85.8466 394.745 89.8027Z" fill="#7120DA"/>
<mask id="mask1_293_51" style="mask-type:luminance" maskUnits="userSpaceOnUse" x="544" y="72" width="362" height="82">
<path d="M905.897 72.248H544.06V153.922H905.897V72.248Z" fill="white"/>
</mask>
<g mask="url(#mask1_293_51)">
<path d="M544.028 73.0585H553.879V153.08H544.028V73.0585ZM548.404 138.564H565.012C566.02 138.612 567.027 138.408 567.933 137.97C568.844 137.533 569.631 136.875 570.222 136.057C571.577 133.977 572.222 131.517 572.071 129.041V128.887C572.113 127.126 571.838 125.372 571.252 123.709C570.79 122.4 569.947 121.257 568.835 120.425C567.704 119.669 566.368 119.286 565.012 119.331H548.404V104.804H565.012C565.933 104.84 566.848 104.642 567.677 104.228C568.501 103.815 569.206 103.2 569.732 102.44C570.95 100.439 571.531 98.1131 571.394 95.773C571.517 93.6443 570.936 91.5344 569.732 89.7743C569.178 89.0578 568.46 88.4852 567.64 88.1043C566.816 87.723 565.914 87.5449 565.012 87.5847H548.404V73.0585H565.342C568.414 72.9715 571.44 73.8688 573.967 75.6198C576.494 77.4907 578.398 80.0758 579.442 83.0417C580.769 86.7969 581.401 90.7626 581.3 94.7439C581.351 97.5524 580.948 100.35 580.11 103.031C579.414 105.244 578.219 107.267 576.617 108.942C575.111 110.467 573.22 111.553 571.142 112.084C573.33 112.563 575.326 113.688 576.869 115.313C578.618 117.172 579.895 119.425 580.591 121.881C581.492 124.899 581.923 128.037 581.872 131.186V131.351C581.978 135.352 581.351 139.34 580.032 143.118C578.998 146.096 577.089 148.693 574.557 150.573C572.021 152.324 568.991 153.221 565.91 153.135H548.404V138.564Z" fill="#231F20"/>
<path d="M591.769 73.058H601.621V153.134H591.769V73.058ZM595.665 106.413H613.793C614.287 106.41 614.782 106.305 615.235 106.106C615.693 105.906 616.1 105.616 616.444 105.253C617.291 104.317 617.899 103.19 618.215 101.968C618.655 100.356 618.879 98.6917 618.87 97.0203C618.897 95.3462 618.687 93.6772 618.247 92.0617C617.941 90.8362 617.327 89.7078 616.476 88.7776C616.132 88.41 615.716 88.1175 615.253 87.9179C614.791 87.7178 614.297 87.6158 613.793 87.6171H595.665V73.058H614.58C617.387 73.0355 620.092 74.0985 622.134 76.0244C624.51 78.343 626.249 81.2348 627.179 84.4205C629.577 92.6417 629.577 101.377 627.179 109.598C626.249 112.787 624.5 115.677 622.111 117.984C620.078 119.908 617.382 120.975 614.58 120.961H595.665V106.413ZM606.611 118.454L617.107 115.915L631.143 153.134H619.264L606.611 118.454Z" fill="#231F20"/>
<path d="M649.39 153.094H639.268V73.0615H649.436L649.39 153.094Z" fill="#231F20"/>
<path d="M697.521 108.352V123.984C697.617 129.314 696.825 134.623 695.182 139.693C693.936 143.724 691.643 147.352 688.535 150.202C685.793 152.632 682.249 153.958 678.583 153.924C674.929 153.971 671.368 152.731 668.534 150.421C665.435 147.812 663.105 144.405 661.805 140.569C660.134 135.812 659.328 130.797 659.429 125.757V102.134C659.328 96.8111 660.12 91.5096 661.768 86.4475C663.014 82.4236 665.307 78.804 668.415 75.9602C671.153 73.5294 674.701 72.2065 678.367 72.249C681.476 72.2504 684.497 73.2822 686.96 75.1829C689.784 77.3995 692.037 80.2597 693.529 83.5246C695.388 87.4775 696.592 91.7073 697.095 96.0475H686.498C686.191 94.4883 685.591 93.0019 684.726 91.6689C683.984 90.5226 682.996 89.5599 681.824 88.8559C680.775 88.2356 679.585 87.9032 678.367 87.8922C676.664 87.878 675.021 88.5079 673.767 89.6547C672.32 91.0289 671.258 92.757 670.681 94.6683C669.917 97.0894 669.546 99.6177 669.587 102.156V125.757C669.541 127.996 669.912 130.222 670.681 132.326C671.304 134.05 672.393 135.567 673.835 136.704C675.195 137.73 676.857 138.273 678.564 138.248C680.263 138.273 681.911 137.673 683.192 136.562C684.644 135.251 685.701 133.565 686.26 131.691C687.024 129.255 687.395 126.712 687.354 124.159V122.835H679.471V108.352H697.521Z" fill="#231F20"/>
<path d="M721.027 73.0615H727.258L747.167 153.083H736.606L724.136 98.4361L711.68 153.083H701.114L721.027 73.0615ZM710.673 125.727H738.038V140.275H710.673V125.727Z" fill="#231F20"/>
<path d="M753.979 73.0606H763.83V153.082H753.979V73.0606ZM758.918 138.556H771.416C772.862 138.625 774.304 138.334 775.613 137.709C776.918 137.084 778.049 136.146 778.905 134.976C780.672 132.59 781.555 129.214 781.555 124.85V101.304C781.555 96.925 780.672 93.5498 778.905 91.178C778.049 90.0084 776.918 89.0695 775.613 88.4447C774.304 87.8198 772.862 87.5291 771.416 87.5982H758.918V73.0606H771.2C775.174 72.9443 779.074 74.124 782.32 76.4216C785.579 78.916 788.015 82.3283 789.315 86.2189C791.036 91.2046 791.851 96.4581 791.723 101.731V124.413C791.823 129.532 791.041 134.631 789.415 139.486C788.124 143.426 785.717 146.906 782.485 149.503C779.225 151.946 775.238 153.208 771.164 153.082H758.918V138.556Z" fill="#231F20"/>
<path d="M811.205 153.094H801.033V73.0615H811.205V153.094Z" fill="#231F20"/>
<path d="M822.325 73.0615H832.176V153.083H822.325V73.0615ZM825.872 73.0615H857.198V87.5877H825.872V73.0615ZM825.872 106.088H853.238V120.615H825.872V106.088ZM825.872 138.556H857.198V153.083H825.872V138.556Z" fill="#231F20"/>
<path d="M866.509 73.058H876.361V153.134H866.509V73.058ZM870.419 106.413H888.533C889.032 106.41 889.522 106.305 889.98 106.106C890.433 105.906 890.845 105.616 891.183 105.253C892.04 104.323 892.648 103.194 892.96 101.968C893.399 100.356 893.619 98.6917 893.614 97.0203C893.642 95.3462 893.431 93.6772 892.992 92.0617C892.68 90.8362 892.072 89.7078 891.216 88.7776C890.872 88.41 890.46 88.1175 889.998 87.9179C889.536 87.7178 889.037 87.6158 888.533 87.6171H870.419V73.058H889.325C892.131 73.0355 894.837 74.0985 896.878 76.0244C899.254 78.343 900.989 81.2348 901.923 84.4205C904.322 92.6417 904.322 101.377 901.923 109.598C900.989 112.787 899.245 115.677 896.855 117.984C894.823 119.908 892.122 120.975 889.325 120.961H870.419V106.413ZM881.364 118.454L891.852 115.915L905.887 153.134H894.008L881.364 118.454Z" fill="#231F20"/>
</g>
</g>
<path d="M367.815 197.044C370.838 197.044 373.289 194.594 373.289 191.571C373.289 188.548 370.838 186.098 367.815 186.098C364.792 186.098 362.342 188.548 362.342 191.571C362.342 194.594 364.792 197.044 367.815 197.044Z" fill="#7120DA"/>
<path d="M885.594 197.044C888.617 197.044 891.068 194.594 891.068 191.571C891.068 188.548 888.617 186.098 885.594 186.098C882.571 186.098 880.121 188.548 880.121 191.571C880.121 194.594 882.571 197.044 885.594 197.044Z" fill="#7120DA"/>
<path d="M417.61 203.776L415.245 200.598C414.545 200.738 413.862 200.808 413.196 200.808C411.462 200.808 409.868 200.405 408.414 199.599C406.978 198.793 405.831 197.672 404.973 196.236C404.132 194.782 403.712 193.154 403.712 191.35C403.712 189.545 404.132 187.925 404.973 186.489C405.831 185.053 406.978 183.932 408.414 183.127C409.868 182.321 411.462 181.918 413.196 181.918C414.93 181.918 416.515 182.321 417.951 183.127C419.405 183.932 420.544 185.053 421.367 186.489C422.207 187.925 422.628 189.545 422.628 191.35C422.628 192.926 422.304 194.371 421.656 195.685C421.025 196.981 420.141 198.058 419.002 198.916L423.048 203.776H417.61ZM408.309 191.35C408.309 192.978 408.747 194.283 409.623 195.264C410.516 196.228 411.707 196.709 413.196 196.709C414.667 196.709 415.841 196.219 416.717 195.238C417.61 194.257 418.057 192.961 418.057 191.35C418.057 189.721 417.61 188.425 416.717 187.461C415.841 186.481 414.667 185.99 413.196 185.99C411.707 185.99 410.516 186.471 409.623 187.435C408.747 188.398 408.309 189.703 408.309 191.35ZM436.949 182.181V193.215C436.949 194.318 437.22 195.168 437.763 195.763C438.306 196.359 439.103 196.657 440.154 196.657C441.205 196.657 442.01 196.359 442.571 195.763C443.131 195.168 443.412 194.318 443.412 193.215V182.181H447.904V193.189C447.904 194.835 447.554 196.228 446.853 197.366C446.153 198.505 445.207 199.363 444.016 199.941C442.843 200.519 441.529 200.808 440.075 200.808C438.621 200.808 437.316 200.528 436.16 199.967C435.022 199.389 434.12 198.531 433.454 197.392C432.789 196.236 432.456 194.835 432.456 193.189V182.181H436.949ZM462.91 182.181V200.624H458.414V182.181H462.91ZM472.756 191.376C472.756 189.554 473.15 187.934 473.942 186.515C474.729 185.079 475.824 183.967 477.224 183.179C478.643 182.373 480.246 181.97 482.031 181.97C484.219 181.97 486.096 182.548 487.653 183.704C489.214 184.86 490.257 186.437 490.779 188.434H485.84C485.474 187.663 484.947 187.076 484.265 186.673C483.601 186.27 482.837 186.069 481.981 186.069C480.594 186.069 479.477 186.551 478.616 187.514C477.76 188.477 477.33 189.765 477.33 191.376C477.33 192.987 477.76 194.275 478.616 195.238C479.477 196.201 480.594 196.683 481.981 196.683C482.837 196.683 483.601 196.482 484.265 196.079C484.947 195.676 485.474 195.089 485.84 194.318H490.779C490.257 196.315 489.214 197.892 487.653 199.048C486.096 200.186 484.219 200.755 482.031 200.755C480.246 200.755 478.643 200.361 477.224 199.573C475.824 198.767 474.729 197.655 473.942 196.236C473.15 194.818 472.756 193.198 472.756 191.376ZM511.581 200.624L505.382 192.479V200.624H500.887V182.181H505.382V190.272L511.53 182.181H516.808L509.663 191.218L517.074 200.624H511.581Z" fill="black"/>
<path d="M554.561 197.156H560.444V200.624H550.07V182.181H554.561V197.156ZM578.668 200.808C576.933 200.808 575.34 200.405 573.884 199.599C572.451 198.793 571.302 197.672 570.446 196.236C569.604 194.782 569.183 193.154 569.183 191.35C569.183 189.545 569.604 187.925 570.446 186.489C571.302 185.053 572.451 183.932 573.884 183.127C575.34 182.321 576.933 181.918 578.668 181.918C580.403 181.918 581.987 182.321 583.424 183.127C584.875 183.932 586.015 185.053 586.839 186.489C587.677 187.925 588.098 189.545 588.098 191.35C588.098 193.154 587.677 194.782 586.839 196.236C585.997 197.672 584.857 198.793 583.424 199.599C581.987 200.405 580.403 200.808 578.668 200.808ZM578.668 196.709C580.137 196.709 581.314 196.219 582.188 195.238C583.081 194.257 583.529 192.961 583.529 191.35C583.529 189.721 583.081 188.425 582.188 187.461C581.314 186.481 580.137 185.99 578.668 185.99C577.18 185.99 575.99 186.471 575.093 187.435C574.218 188.398 573.779 189.703 573.779 191.35C573.779 192.978 574.218 194.283 575.093 195.264C575.99 196.228 577.18 196.709 578.668 196.709ZM614.452 200.624H609.962L602.449 189.248V200.624H597.954V182.181H602.449L609.962 193.609V182.181H614.452V200.624ZM637.309 188.013C636.975 187.4 636.494 186.936 635.863 186.621C635.254 186.288 634.526 186.121 633.684 186.121C632.232 186.121 631.065 186.603 630.191 187.566C629.316 188.512 628.877 189.782 628.877 191.376C628.877 193.075 629.33 194.406 630.241 195.369C631.17 196.315 632.438 196.788 634.05 196.788C635.158 196.788 636.082 196.508 636.838 195.947C637.607 195.387 638.17 194.581 638.518 193.53H632.818V190.22H642.592V194.397C642.258 195.518 641.69 196.56 640.884 197.524C640.092 198.487 639.085 199.266 637.863 199.862C636.636 200.458 635.254 200.755 633.711 200.755C631.889 200.755 630.259 200.361 628.822 199.573C627.403 198.767 626.295 197.655 625.489 196.236C624.697 194.818 624.304 193.198 624.304 191.376C624.304 189.554 624.697 187.934 625.489 186.515C626.295 185.079 627.403 183.967 628.822 183.179C630.241 182.373 631.862 181.97 633.684 181.97C635.89 181.97 637.749 182.504 639.255 183.573C640.779 184.641 641.786 186.121 642.276 188.013H637.309Z" fill="black"/>
<path d="M674.975 197.157H680.857V200.625H670.48V182.182H674.975V197.157ZM696.953 182.182V200.625H692.458V182.182H696.953ZM726.979 182.182L720.437 200.625H714.815L708.274 182.182H713.053L717.626 196.106L722.222 182.182H726.979ZM742.809 185.781V189.512H748.824V192.979H742.809V197.026H749.611V200.625H738.313V182.182H749.611V185.781H742.809Z" fill="black"/>
<path d="M802.906 182.182V185.781H795.389V189.669H801.011V193.163H795.389V200.625H790.898V182.182H802.906ZM817.115 182.182V200.625H812.62V182.182H817.115ZM839.024 200.625L835.266 194.976L831.956 200.625H826.861L832.771 191.246L826.729 182.182H831.956L835.66 187.751L838.919 182.182H844.014L838.155 191.482L844.252 200.625H839.024Z" fill="black"/>
</svg>
